<?xml version="1.0" encoding="UTF-8"?>
<svg width="32" height="32" viewBox="0 0 32 32" fill="none" xmlns="http://www.w3.org/2000/svg">
  <!-- Background circle with gradient -->
  <circle cx="16" cy="16" r="16" fill="url(#gradient)"/>
  
  <!-- Chef hat -->
  <path d="M16 6c-3.5 0-6 2.5-6 6 0 1 0.2 1.9 0.6 2.7C11.2 15.5 12 16 12 16v8c0 1.1 0.9 2 2 2h4c1.1 0 2-0.9 2-2v-8s0.8-0.5 1.4-1.3c0.4-0.8 0.6-1.7 0.6-2.7 0-3.5-2.5-6-6-6z" fill="white" fill-opacity="0.9"/>
  
  <!-- Robot eyes -->
  <circle cx="13" cy="18" r="1.5" fill="#FF6B35"/>
  <circle cx="19" cy="18" r="1.5" fill="#FF6B35"/>
  
  <!-- Smile -->
  <path d="M13 22c0.5 1 1.4 1.5 3 1.5s2.5-0.5 3-1.5" stroke="#FF6B35" stroke-width="1.5" stroke-linecap="round" fill="none"/>
  
  <!-- Gradient definition -->
  <defs>
    <linearGradient id="gradient" x1="0%" y1="0%" x2="100%" y2="100%">
      <stop offset="0%" style="stop-color:#FF6B35;stop-opacity:1" />
      <stop offset="100%" style="stop-color:#F7931E;stop-opacity:1" />
    </linearGradient>
  </defs>
</svg>